<svg width="20" height="20" viewBox="0 0 48 48" fill="none" xmlns="http://www.w3.org/2000/svg">
  <path d="M44.5 20H43V20H24V28H36.9C35.2 32.9 30.9 36 25 36C17.8 36 12 30.2 12 23C12 15.8 17.8 10 25 10C28.6 10 31.8 11.4 34.1 13.9L39.8 8.2C36.2 4.3 30.9 2 25 2C12.8 2 3 11.8 3 24C3 36.2 12.8 46 25 46C37.2 46 47 36.2 47 24C47 22.6 46.9 21.3 46.7 20H44.5Z" fill="#4285F4"/>
  <path d="M6.3 14.7L12.9 19.6C14.7 14.8 19.4 10.9 25 10.9C28.6 10.9 31.8 12.4 34.1 14.9L39.8 9.2C36.2 5.3 30.9 3 25 3C16.6 3 9.5 8.1 6.3 14.7Z" fill="#34A853"/>
  <path d="M25 45C30.8 45 36 42.8 39.5 39L33.1 34.1C31.1 35.6 28.3 36.5 25 36.5C19.2 36.5 14.5 32.6 12.9 27.8L6.2 32.9C9.3 39.7 16.5 45 25 45Z" fill="#FBBC05"/>
  <path d="M44.5 20H43V20H24V28H36.9C36.1 30.4 34.7 32.3 33 33.7L39.5 38.9C42.7 35.9 44.5 31.3 44.5 26C44.5 23.9 44.3 21.9 44.5 20Z" fill="#EA4335"/>
</svg>
